<svg xmlns="http://www.w3.org/2000/svg" viewBox="0 0 21.42 19"><defs><style>.cls-1{fill:#5f6368;}</style></defs><g id="Layer_2" data-name="Layer 2"><g id="Layer_1-2" data-name="Layer 1"><path class="cls-1" d="M16.13,8.14,12.72,2H8.12L2,13l2.1,4h8.11a6,6,0,0,0,1.88,2h-10a2.12,2.12,0,0,1-1.8-1.1l-2.1-4a2.18,2.18,0,0,1,0-1.9L6.43,1A1.93,1.93,0,0,1,8.12,0h4.6a2.23,2.23,0,0,1,1.8,1l3.94,7.09a5.92,5.92,0,0,0-1-.09A6.14,6.14,0,0,0,16.13,8.14Z"/><path class="cls-1" d="M13.65,9.34,11.32,5.4H9.52L5,13.2l.7,1.3h5.72c0-.17,0-.33,0-.5a6.16,6.16,0,0,1,.19-1.5H7.72l2.7-4.8L12.25,11A6,6,0,0,1,13.65,9.34Z"/><path class="cls-1" d="M18.42,18V15h3V13h-3V10h-2v3h-3v2h3v3Z"/></g></g></svg>