<svg xmlns="http://www.w3.org/2000/svg" viewBox="0 0 14 14"><defs><style>.cls-1{fill:#673ab7;fill-rule:evenodd;}</style></defs><g id="Layer_2" data-name="Layer 2"><g id="Layer_1-2" data-name="Layer 1"><g id="Page-1"><g id="forms_14" data-name="forms 14"><g id="Page-1-2" data-name="Page-1"><g id="forms_14--1" data-name="forms 14--1"><g id="Group"><path id="Shape" class="cls-1" d="M12.4,0H1.6A1.58,1.58,0,0,0,0,1.6V12.4A1.58,1.58,0,0,0,1.6,14H12.4A1.58,1.58,0,0,0,14,12.4V1.6A1.58,1.58,0,0,0,12.4,0ZM4,11H2V9H4v2ZM4,8H2V6H4V8ZM4,5H2V3H4V5Zm8,6H5V9h7v2Zm0-3H5V6h7V8Zm0-3H5V3h7V5Z"/></g></g></g></g></g></g></g></svg>