<svg xmlns="http://www.w3.org/2000/svg" xmlns:xlink="http://www.w3.org/1999/xlink" viewBox="0 0 24 24"><defs><style>.cls-1{fill:#fff;}.cls-1,.cls-3{fill-rule:evenodd;}.cls-2{mask:url(#mask);}.cls-3{fill:#5f6368;}</style><mask id="mask" x="0" y="0" width="24" height="24" maskUnits="userSpaceOnUse"><g id="help_outline_24_b" data-name="help outline 24 b"><path id="help_outline_24_a" data-name="help outline 24 a" class="cls-1" d="M11,18h2V16H11ZM12,2A10,10,0,1,0,22,12,10,10,0,0,0,12,2Zm0,18a8,8,0,1,1,8-8A8,8,0,0,1,12,20ZM12,6a4,4,0,0,0-4,4h2a2,2,0,0,1,4,0c0,2-3,1.75-3,5h2c0-2.25,3-2.5,3-5A4,4,0,0,0,12,6Z"/></g></mask></defs><g id="Layer_2" data-name="Layer 2"><g id="Layer_1-2" data-name="Layer 1"><g class="cls-2"><path class="cls-3" d="M0,0H24V24H0Z"/></g></g></g></svg>